<svg width="43" height="43" viewBox="0 0 43 43" fill="none" xmlns="http://www.w3.org/2000/svg">
<g clip-path="url(#clip0_159_97)" filter="url(#filter0_d_159_97)">
<path d="M36.6386 2.3615C33.4899 -0.787176 28.3852 -0.787176 25.2365 2.36143L18.498 9.09994C15.2411 12.357 15.5426 17.5465 18.498 20.5021C18.9929 20.997 19.5405 21.4005 20.1187 21.7319L21.3485 20.5021C22.1552 19.6953 21.8713 18.7522 21.8567 18.0716C21.6797 17.9461 21.5075 17.8105 21.3485 17.6515C19.8319 16.135 19.7637 13.5353 21.3485 11.9504C21.5839 11.7151 27.9441 5.3549 28.0869 5.21206C29.659 3.63994 32.2158 3.63994 33.788 5.21206C35.3601 6.78418 35.3601 9.341 33.788 10.9131L29.3339 15.3672C29.4627 16.0798 30.2357 17.768 29.8381 20.5528C29.8575 20.5337 29.8807 20.5214 29.9001 20.5021L36.6386 13.7636C39.7871 10.6149 39.7871 5.51017 36.6386 2.3615Z" fill="#333333"/>
<path d="M25.6242 13.3757C25.1294 12.8808 24.5818 12.4773 24.0037 12.1459L22.7738 13.3757C21.967 14.1824 22.251 15.1255 22.2655 15.806C22.4426 15.9316 22.6148 16.0672 22.7738 16.2262C24.2904 17.7428 24.3586 20.3424 22.7738 21.9272C22.5379 22.1631 15.6509 29.0501 15.5131 29.1879C13.941 30.76 11.3842 30.76 9.81207 29.1879C8.23995 27.6158 8.23995 25.059 9.81207 23.4869L14.7884 18.5105C14.6596 17.7978 13.8866 16.1097 14.2843 13.3249C14.2649 13.344 14.2415 13.3564 14.2221 13.3757L6.9615 20.6364C3.81296 23.7851 3.81296 28.8899 6.9615 32.0385C10.1102 35.1871 15.2149 35.1871 18.3636 32.0385L25.6242 24.7779C28.8208 21.5814 28.6461 16.3975 25.6242 13.3757Z" fill="#333333"/>
</g>
<defs>
<filter id="filter0_d_159_97" x="0.600098" y="0" width="42.3999" height="42.4" filterUnits="userSpaceOnUse" color-interpolation-filters="sRGB">
<feFlood flood-opacity="0" result="BackgroundImageFix"/>
<feColorMatrix in="SourceAlpha" type="matrix" values="0 0 0 0 0 0 0 0 0 0 0 0 0 0 0 0 0 0 127 0" result="hardAlpha"/>
<feOffset dy="4"/>
<feGaussianBlur stdDeviation="2"/>
<feComposite in2="hardAlpha" operator="out"/>
<feColorMatrix type="matrix" values="0 0 0 0 0 0 0 0 0 0 0 0 0 0 0 0 0 0 0.25 0"/>
<feBlend mode="normal" in2="BackgroundImageFix" result="effect1_dropShadow_159_97"/>
<feBlend mode="normal" in="SourceGraphic" in2="effect1_dropShadow_159_97" result="shape"/>
</filter>
<clipPath id="clip0_159_97">
<rect width="34.4" height="34.4" fill="white" transform="translate(4.6001)"/>
</clipPath>
</defs>
</svg>
