<svg width="105" height="18" viewBox="0 0 105 18" fill="none" xmlns="http://www.w3.org/2000/svg">
<path d="M8.52564 0L11.0311 5.07718L16.634 5.89107L12.5796 9.84284L13.5369 15.423L8.52564 12.7882L3.5144 15.423L4.47173 9.84284L0.417274 5.89107L6.02019 5.07718L8.52564 0Z" fill="#FFCC48"/>
<path d="M30.5127 0L33.0182 5.07718L38.6211 5.89107L34.5666 9.84284L35.5239 15.423L30.5127 12.7882L25.5015 15.423L26.4588 9.84284L22.4043 5.89107L28.0072 5.07718L30.5127 0Z" fill="#FFCC48"/>
<path d="M52.5 0L55.0055 5.07718L60.6084 5.89107L56.5539 9.84284L57.5113 15.423L52.5 12.7882L47.4888 15.423L48.4461 9.84284L44.3916 5.89107L49.9946 5.07718L52.5 0Z" fill="#FFCC48"/>
<path d="M74.4871 0L76.9925 5.07718L82.5954 5.89107L78.541 9.84284L79.4983 15.423L74.4871 12.7882L69.4758 15.423L70.4332 9.84284L66.3787 5.89107L71.9816 5.07718L74.4871 0Z" fill="#FFCC48"/>
<path d="M96.4744 0L98.9798 5.07718L104.583 5.89107L100.528 9.84284L101.486 15.423L96.4744 12.7882L91.4631 15.423L92.4205 9.84284L88.366 5.89107L93.9689 5.07718L96.4744 0Z" fill="#FFCC48"/>
</svg>
